<?xml version="1.0" standalone="no"?>
<!DOCTYPE svg PUBLIC "-//W3C//DTD SVG 20010904//EN"
 "http://www.w3.org/TR/2001/REC-SVG-20010904/DTD/svg10.dtd">
<svg version="1.0" xmlns="http://www.w3.org/2000/svg"
 width="860.000000pt" height="843.000000pt" viewBox="0 0 860.000000 843.000000"
 preserveAspectRatio="xMidYMid meet">

<g transform="translate(0.000000,843.000000) scale(0.100000,-0.100000)"
fill="#000000" stroke="none">
<path d="M2970 8019 c-215 -25 -443 -116 -630 -252 -86 -62 -239 -224 -303
-318 -99 -148 -168 -318 -204 -497 -25 -129 -23 -366 6 -499 56 -266 182 -495
375 -680 174 -168 381 -282 611 -339 24 -5 4 -11 -90 -24 -1259 -178 -2246
-1165 -2420 -2419 -9 -62 -14 -115 -11 -118 25 -26 1115 -149 1492 -169 l120
-7 29 49 c211 365 545 734 913 1007 199 147 492 314 710 402 50 21 92 42 92
47 0 5 -22 35 -48 66 -372 447 -481 1092 -281 1659 157 445 525 829 966 1008
81 33 109 49 111 64 2 11 -13 67 -32 124 -200 599 -780 968 -1406 896z"/>
<path d="M4802 6650 c-515 -65 -944 -415 -1102 -901 -61 -185 -79 -441 -45
-634 19 -105 71 -268 113 -352 160 -315 456 -570 777 -668 50 -15 99 -31 109
-34 12 -4 -20 -12 -80 -20 -606 -78 -1192 -368 -1634 -811 -311 -312 -542
-685 -681 -1100 -70 -209 -120 -442 -123 -570 l-1 -65 222 -32 c558 -80 1178
-135 1838 -163 267 -11 1243 -14 1409 -3 93 5 106 8 99 22 -4 9 -9 193 -11
409 -3 436 -2 444 62 483 29 18 58 19 454 19 l422 0 0 425 c0 477 -1 469 70
505 33 17 59 20 170 20 71 0 130 4 130 9 0 14 -165 167 -275 255 -403 322
-899 533 -1398 597 l-98 13 113 36 c474 152 813 535 904 1025 23 120 23 330 0
455 -48 268 -173 506 -367 701 -191 191 -421 313 -689 363 -106 20 -292 28
-388 16z"/>
<path d="M6879 2884 l-24 -26 -3 -423 -3 -424 -424 -3 -423 -3 -26 -24 -26
-25 2 -224 3 -225 28 -21 c28 -20 39 -21 448 -24 l419 -3 0 -410 c0 -437 2
-453 49 -479 27 -14 426 -13 453 1 45 24 48 53 48 484 l0 405 405 0 c431 0
460 3 484 48 7 13 11 99 11 231 0 207 0 210 -24 238 l-24 28 -426 3 -426 3 0
405 c0 430 -3 459 -48 483 -13 7 -100 11 -235 11 l-214 0 -24 -26z"/>
</g>
</svg>
