<?xml version="1.0" standalone="no"?>
<!DOCTYPE svg PUBLIC "-//W3C//DTD SVG 20010904//EN"
 "http://www.w3.org/TR/2001/REC-SVG-20010904/DTD/svg10.dtd">
<svg version="1.0" xmlns="http://www.w3.org/2000/svg"
 width="16.000000pt" height="15.000000pt" viewBox="0 0 16.000000 15.000000"
 preserveAspectRatio="xMidYMid meet">
<metadata>
Created by potrace 1.16, written by Peter Selinger 2001-2019
</metadata>
<g transform="translate(0.000000,15.000000) scale(0.003125,-0.002930)"
fill="#000000" stroke="none">
<path d="M2366 4540 c-182 -29 -383 -109 -533 -212 -147 -100 -296 -266 -386
-428 -170 -307 -199 -707 -76 -1042 87 -239 256 -455 470 -601 l78 -54 -122
-61 c-339 -169 -605 -439 -767 -777 -87 -182 -149 -406 -131 -473 22 -76 103
-123 179 -103 65 18 91 56 123 181 135 528 543 917 1082 1032 80 16 137 21
262 22 228 0 386 -34 596 -130 105 -48 129 -52 189 -28 52 21 80 66 80 130 0
78 -25 107 -135 161 l-95 46 76 50 c267 177 466 479 531 804 23 120 23 356 0
476 -99 495 -476 880 -974 992 -82 19 -363 28 -447 15z m394 -305 c412 -98
717 -446 748 -854 32 -413 -179 -780 -550 -956 -442 -209 -968 -52 -1228 369
-102 163 -145 337 -137 541 10 252 100 459 276 636 150 150 340 247 546 279
80 12 264 4 345 -15z"/>
<path d="M3665 2120 c-11 -4 -33 -22 -50 -40 l-30 -31 -3 -239 -3 -238 -232
-4 c-265 -3 -280 -8 -318 -86 -39 -79 -7 -164 71 -196 33 -13 81 -16 260 -16
l220 0 0 -227 c0 -210 2 -231 20 -261 58 -95 192 -95 250 0 18 30 20 51 20
261 l0 227 220 0 c244 0 267 4 313 59 51 61 31 172 -40 218 -24 16 -56 18
-260 21 l-233 4 0 226 c0 255 -5 279 -71 314 -35 19 -99 23 -134 8z"/>
</g>
</svg>
